<svg width="340" height="420" viewBox="0 0 340 420" fill="none" xmlns="http://www.w3.org/2000/svg">
<rect width="340" height="420" fill="white"/>
<path d="M143.468 229.542H151.843M160.218 229.542H151.843M151.843 229.542V221.167M151.843 229.542V237.917M157.449 182.083H183.97L196.532 194.646V229.542" stroke="#00B4D0" stroke-width="3" stroke-linecap="round" stroke-linejoin="round"/>
<path d="M168.615 237.917H183.969C185.08 237.917 186.145 237.475 186.93 236.69C187.716 235.905 188.157 234.84 188.157 233.729V200.924C188.157 200.704 188.114 200.486 188.03 200.282C187.945 200.078 187.822 199.893 187.666 199.738L178.877 190.95C178.721 190.793 178.536 190.669 178.332 190.585C178.128 190.501 177.909 190.458 177.688 190.458H150.469C149.359 190.458 148.294 190.899 147.508 191.685C146.723 192.47 146.282 193.535 146.282 194.646V212.792" stroke="#00B4D0" stroke-width="3" stroke-linecap="round" stroke-linejoin="round"/>
<path d="M176.99 199.95V191.446C176.991 191.251 177.049 191.061 177.157 190.898C177.266 190.736 177.42 190.61 177.601 190.535C177.781 190.46 177.979 190.441 178.171 190.479C178.362 190.517 178.538 190.611 178.677 190.749L187.867 199.939C188.006 200.076 188.101 200.252 188.14 200.444C188.179 200.636 188.159 200.835 188.084 201.016C188.009 201.197 187.882 201.352 187.719 201.46C187.556 201.569 187.365 201.626 187.169 201.625H178.665C178.221 201.625 177.795 201.448 177.481 201.134C177.167 200.82 176.99 200.394 176.99 199.95V199.95Z" stroke="#00B4D0" stroke-width="3" stroke-linecap="round" stroke-linejoin="round"/>
<rect x="120.75" y="160.75" width="98.5" height="98.5" rx="5.25" stroke="#E2E2E2" stroke-width="1.5" stroke-dasharray="8 8"/>
</svg>
