<svg style="animation: logobounce .7s ease-in infinite .35s;display:block;" xmlns="http://www.w3.org/2000/svg" viewBox="0 0 118.08 118.08"><g id="a"/><g id="b" style="fill:#00b4d0"><g id="c"><g><path class="e" style="fill:#00a2bc" d="M118.08,31.38H43.35c-6.61,0-11.98,5.36-11.98,11.98V118.08c-17.32,0-31.37-14.05-31.37-31.38V31.38C0,14.05,14.05,0,31.37,0h55.33c17.33,0,31.38,14.05,31.38,31.38Z"/><path class="f" style="fill:#3bc4e5" d="M86.7,118.07h-.1v-19.25c0-6.75,5.47-12.22,12.22-12.22h19.25v.09c0,17.33-14.05,31.38-31.38,31.38Z"/><path class="d" style="fill:#00b4d0" d="M118.08,43.35v31.38h-31.38c-6.61,0-11.98,5.36-11.98,11.97v31.38h-31.37V55.33c0-6.61,5.36-11.98,11.97-11.98h62.75Z"/></g></g></g></svg>