<svg width="342" height="408" viewBox="0 0 342 408" fill="none" xmlns="http://www.w3.org/2000/svg">
<rect width="341.923" height="408" fill="white"/>
<path d="M174.171 175.467H148.638C148.148 175.467 147.678 175.273 147.332 174.926C146.985 174.58 146.79 174.11 146.79 173.62V128.355C146.79 127.865 146.985 127.395 147.332 127.048C147.678 126.702 148.148 126.507 148.638 126.507H172.397V138.184C172.397 138.551 172.543 138.904 172.803 139.163C173.063 139.423 173.416 139.569 173.783 139.569H185.46V150.128C185.46 150.496 185.606 150.848 185.866 151.108C186.125 151.368 186.478 151.514 186.845 151.514C187.213 151.514 187.565 151.368 187.825 151.108C188.085 150.848 188.231 150.496 188.231 150.128V138.184C188.232 137.995 188.193 137.808 188.119 137.635C188.044 137.462 187.934 137.306 187.797 137.177L174.79 124.198C174.651 124.055 174.484 123.942 174.3 123.865C174.136 123.798 173.961 123.763 173.783 123.763H148.638C147.413 123.763 146.238 124.25 145.372 125.116C144.506 125.982 144.019 127.157 144.019 128.382V173.647C144.019 174.872 144.506 176.047 145.372 176.913C146.238 177.78 147.413 178.266 148.638 178.266H174.171C174.539 178.266 174.891 178.12 175.151 177.86C175.411 177.601 175.557 177.248 175.557 176.881C175.557 176.513 175.411 176.161 175.151 175.901C174.891 175.641 174.539 175.495 174.171 175.495V175.467ZM175.169 128.475L183.483 136.789H175.169V128.475Z" fill="#5C5F62"/>
<path d="M186.55 154.285C184.175 154.285 181.853 154.989 179.878 156.309C177.903 157.629 176.364 159.504 175.455 161.698C174.546 163.893 174.308 166.307 174.771 168.637C175.235 170.967 176.379 173.106 178.058 174.786C179.738 176.465 181.877 177.609 184.207 178.073C186.536 178.536 188.951 178.298 191.145 177.389C193.34 176.48 195.215 174.941 196.535 172.966C197.855 170.991 198.559 168.669 198.559 166.294C198.559 164.717 198.248 163.155 197.645 161.698C197.041 160.241 196.157 158.918 195.041 157.802C193.926 156.687 192.602 155.803 191.145 155.199C189.688 154.596 188.127 154.285 186.55 154.285ZM186.55 175.467C184.723 175.467 182.937 174.925 181.418 173.91C179.898 172.895 178.714 171.453 178.015 169.765C177.316 168.077 177.133 166.219 177.489 164.427C177.846 162.635 178.726 160.989 180.018 159.697C181.31 158.405 182.956 157.526 184.748 157.169C186.54 156.813 188.397 156.996 190.085 157.695C191.773 158.394 193.216 159.578 194.231 161.097C195.246 162.616 195.788 164.402 195.788 166.229C195.788 168.68 194.814 171.029 193.082 172.762C191.349 174.494 189 175.467 186.55 175.467Z" fill="#5C5F62"/>
<path d="M191.446 164.844H187.898V161.361C187.898 160.994 187.753 160.641 187.493 160.381C187.233 160.122 186.88 159.976 186.513 159.976C186.145 159.976 185.793 160.122 185.533 160.381C185.273 160.641 185.127 160.994 185.127 161.361V164.844H181.645C181.277 164.844 180.925 164.99 180.665 165.25C180.405 165.51 180.259 165.862 180.259 166.229C180.259 166.597 180.405 166.949 180.665 167.209C180.925 167.469 181.277 167.615 181.645 167.615H185.127V171.126C185.127 171.493 185.273 171.845 185.533 172.105C185.793 172.365 186.145 172.511 186.513 172.511C186.88 172.511 187.233 172.365 187.493 172.105C187.753 171.845 187.898 171.493 187.898 171.126V167.615H191.409C191.776 167.615 192.129 167.469 192.389 167.209C192.649 166.949 192.795 166.597 192.795 166.229C192.795 165.862 192.649 165.51 192.389 165.25C192.129 164.99 191.776 164.844 191.409 164.844H191.446Z" fill="#5C5F62"/>
<path fill-rule="evenodd" clip-rule="evenodd" d="M107.35 220.105L107.738 218.143C108.116 218.218 108.508 218.257 108.911 218.257V220.257C108.377 220.257 107.855 220.205 107.35 220.105ZM230.901 220.257V218.257H232.408C232.811 218.257 233.203 218.218 233.581 218.143L233.969 220.105C233.464 220.205 232.942 220.257 232.408 220.257H230.901ZM236.852 218.91L235.74 217.248C236.395 216.809 236.959 216.245 237.398 215.589L239.06 216.702C238.476 217.574 237.725 218.326 236.852 218.91ZM240.408 212.257C240.408 212.791 240.355 213.313 240.255 213.818L238.293 213.43C238.368 213.052 238.408 212.66 238.408 212.257H240.408ZM240.408 90.267H238.408V88.761C238.408 88.3577 238.368 87.9656 238.293 87.5878L240.255 87.1997C240.355 87.7047 240.408 88.2267 240.408 88.761V90.267ZM239.06 84.3161L237.398 85.4287C236.959 84.7735 236.395 84.209 235.74 83.7704L236.852 82.1085C237.725 82.6925 238.476 83.4437 239.06 84.3161ZM232.408 80.761C232.942 80.761 233.464 80.8134 233.969 80.9133L233.581 82.8752C233.203 82.8005 232.811 82.761 232.408 82.761V80.761ZM110.417 80.761H108.911C108.377 80.761 107.855 80.8134 107.35 80.9133L107.738 82.8752C108.116 82.8005 108.508 82.761 108.911 82.761H110.417V80.761ZM104.466 82.1085L105.579 83.7704C104.924 84.209 104.359 84.7735 103.921 85.4287L102.259 84.3161C102.843 83.4436 103.594 82.6925 104.466 82.1085ZM100.911 210.751H102.911V212.257C102.911 212.66 102.951 213.052 103.026 213.43L101.064 213.818C100.964 213.313 100.911 212.791 100.911 212.257V210.751ZM104.466 218.91L105.579 217.248C104.924 216.809 104.359 216.245 103.921 215.589L102.259 216.702C102.843 217.574 103.594 218.326 104.466 218.91ZM100.911 207.739H102.911V204.727H100.911V207.739ZM100.911 201.715H102.911V198.703H100.911V201.715ZM100.911 195.691H102.911V192.678H100.911V195.691ZM100.911 189.666H102.911V186.654H100.911V189.666ZM100.911 183.642H102.911V180.63H100.911V183.642ZM100.911 177.618H102.911V174.606H100.911V177.618ZM100.911 171.594H102.911V168.582H100.911V171.594ZM100.911 165.57H102.911V162.557H100.911V165.57ZM100.911 159.545H102.911V156.533H100.911V159.545ZM100.911 153.521H102.911V150.509H100.911V153.521ZM100.911 147.497H102.911V144.485H100.911V147.497ZM100.911 141.473H102.911V138.461H100.911V141.473ZM100.911 135.449H102.911V132.436H100.911V135.449ZM100.911 129.424H102.911V126.412H100.911V129.424ZM100.911 123.4H102.911V120.388H100.911V123.4ZM100.911 117.376H102.911V114.364H100.911V117.376ZM100.911 111.352H102.911V108.34H100.911V111.352ZM100.911 105.328H102.911V102.315H100.911V105.328ZM100.911 99.3034H102.911V96.2913H100.911V99.3034ZM100.911 93.2792H102.911V90.2671H100.911V93.2792ZM100.911 88.761H102.911C102.911 88.3577 102.951 87.9657 103.026 87.5878L101.064 87.1997C100.964 87.7047 100.911 88.2267 100.911 88.761ZM113.43 80.761V82.761H116.442V80.761H113.43ZM119.454 80.761V82.761H122.466V80.761H119.454ZM125.478 80.761V82.761H128.49V80.761H125.478ZM131.502 80.761V82.761H134.514V80.761H131.502ZM137.526 80.761V82.761H140.538V80.761H137.526ZM143.551 80.761V82.761H146.563V80.761H143.551ZM149.575 80.761V82.761H152.587V80.761H149.575ZM155.599 80.761V82.761H158.611V80.761H155.599ZM161.623 80.761V82.761H164.635V80.761H161.623ZM167.647 80.761V82.761H170.659V80.761H167.647ZM173.672 80.761V82.761H176.684V80.761H173.672ZM179.696 80.761V82.761H182.708V80.761H179.696ZM185.72 80.761V82.761H188.732V80.761H185.72ZM191.744 80.761V82.761H194.756V80.761H191.744ZM197.768 80.761V82.761H200.78V80.761H197.768ZM203.793 80.761V82.761H206.805V80.761H203.793ZM209.817 80.761V82.761H212.829V80.761H209.817ZM215.841 80.761V82.761H218.853V80.761H215.841ZM221.865 80.761V82.761H224.877V80.761H221.865ZM227.889 80.761V82.761H230.901V80.761H227.889ZM240.408 93.2791H238.408V96.2912H240.408V93.2791ZM240.408 99.3033H238.408V102.315H240.408V99.3033ZM240.408 105.328H238.408V108.34H240.408V105.328ZM240.408 111.352H238.408V114.364H240.408V111.352ZM240.408 117.376H238.408V120.388H240.408V117.376ZM240.408 123.4H238.408V126.412H240.408V123.4ZM240.408 129.424H238.408V132.436H240.408V129.424ZM240.408 135.449H238.408V138.461H240.408V135.449ZM240.408 141.473H238.408V144.485H240.408V141.473ZM240.408 147.497H238.408V150.509H240.408V147.497ZM240.408 153.521H238.408V156.533H240.408V153.521ZM240.408 159.545H238.408V162.557H240.408V159.545ZM240.408 165.57H238.408V168.582H240.408V165.57ZM240.408 171.594H238.408V174.606H240.408V171.594ZM240.408 177.618H238.408V180.63H240.408V177.618ZM240.408 183.642H238.408V186.654H240.408V183.642ZM240.408 189.666H238.408V192.678H240.408V189.666ZM240.408 195.691H238.408V198.703H240.408V195.691ZM240.408 201.715H238.408V204.727H240.408V201.715ZM240.408 207.739H238.408V210.751H240.408V207.739ZM227.889 220.257V218.257H224.877V220.257H227.889ZM221.865 220.257V218.257H218.853V220.257H221.865ZM215.841 220.257V218.257H212.829V220.257H215.841ZM209.817 220.257V218.257H206.805V220.257H209.817ZM203.793 220.257V218.257H200.78V220.257H203.793ZM197.768 220.257V218.257H194.756V220.257H197.768ZM191.744 220.257V218.257H188.732V220.257H191.744ZM185.72 220.257V218.257H182.708V220.257H185.72ZM179.696 220.257V218.257H176.684V220.257H179.696ZM173.672 220.257V218.257H170.659V220.257H173.672ZM167.647 220.257V218.257H164.635V220.257H167.647ZM161.623 220.257V218.257H158.611V220.257H161.623ZM155.599 220.257V218.257H152.587V220.257H155.599ZM149.575 220.257V218.257H146.563V220.257H149.575ZM143.551 220.257V218.257H140.538V220.257H143.551ZM137.526 220.257V218.257H134.514V220.257H137.526ZM131.502 220.257V218.257H128.49V220.257H131.502ZM125.478 220.257V218.257H122.466V220.257H125.478ZM119.454 220.257V218.257H116.442V220.257H119.454ZM113.43 220.257V218.257H110.417V220.257H113.43Z" fill="#E1E3E5"/>
</svg>
