<svg width="245" height="245" viewBox="0 0 245 245" fill="none" xmlns="http://www.w3.org/2000/svg">
<rect width="245" height="245" fill="white"/>
<path fill-rule="evenodd" clip-rule="evenodd" d="M143.946 180.155L143.677 77.091C142.982 76.3962 141.627 76.6047 141.098 76.761L137.567 77.8552C137.131 76.4214 136.564 75.0305 135.874 73.6998C133.373 68.9235 129.708 66.3964 125.279 66.392H125.266C124.971 66.392 124.676 66.4181 124.381 66.4441H124.346C124.217 66.288 124.084 66.136 123.946 65.9882C122.018 63.9214 119.543 62.9183 116.578 63.0052C110.855 63.1702 105.158 67.3039 100.542 74.6377C97.2858 79.8048 94.8195 86.2876 94.116 91.3114L82.857 94.7937C79.5396 95.8358 79.4354 95.9357 79.0012 99.0577C78.6712 101.428 70 168.51 70 168.51L142.7 181.08L143.946 180.155V180.155ZM120.125 67.712C119.1 67.0614 117.899 66.7458 116.686 66.8089C107.859 67.0694 100.156 80.8556 98.1889 90.0478L106.652 87.4252L108.158 86.9606C109.266 81.1248 112.049 75.0719 115.683 71.1727C116.956 69.7745 118.458 68.6041 120.125 67.712V67.712ZM112.34 85.6666L124.48 81.9064C124.519 78.7453 124.176 74.0689 122.592 70.7689C120.907 71.4636 119.487 72.6794 118.467 73.7693C115.74 76.7002 113.517 81.1726 112.344 85.6666H112.34ZM128.288 80.7253L133.929 78.9754C133.026 76.0489 130.889 71.138 126.547 70.3173C127.898 73.7997 128.245 77.8291 128.284 80.7253H128.288Z" fill="#95BF47"/>
<path d="M160.233 84.7548C159.803 84.7201 151.397 84.5942 151.397 84.5942C151.397 84.5942 144.367 77.764 143.677 77.0693C143.407 76.8205 143.065 76.6638 142.7 76.6221V181.063L174.206 173.23C174.206 173.23 161.349 86.3136 161.267 85.7188C161.228 85.4654 161.104 85.2326 160.917 85.0577C160.73 84.8829 160.489 84.7762 160.233 84.7548V84.7548Z" fill="#5E8E3E"/>
<path d="M125.24 100.977L121.58 114.668C121.58 114.668 117.498 112.805 112.661 113.113C105.562 113.56 105.488 118.037 105.557 119.157C105.948 125.28 122.053 126.617 122.961 140.959C123.668 152.244 116.973 159.96 107.325 160.568C95.7443 161.302 89.3701 154.467 89.3701 154.467L91.8234 144.029C91.8234 144.029 98.241 148.87 103.373 148.545C106.73 148.336 107.933 145.605 107.807 143.677C107.303 135.688 94.1855 136.161 93.3562 123.035C92.6614 111.988 99.9127 100.803 115.918 99.7915C122.084 99.4007 125.24 100.977 125.24 100.977Z" fill="white"/>
</svg>
