<svg width="245" height="245" viewBox="0 0 245 245" fill="none" xmlns="http://www.w3.org/2000/svg">
<rect width="245" height="245" fill="white"/>
<path d="M181.08 95.38H106.35C99.74 95.38 94.37 100.74 94.37 107.36V182.08C77.05 182.08 63 168.03 63 150.7V95.38C63 78.05 77.05 64 94.37 64H149.7C167.03 64 181.08 78.05 181.08 95.38Z" fill="#00A2BC"/>
<path d="M149.7 182.07H149.6V162.82C149.6 156.07 155.07 150.6 161.82 150.6H181.07V150.69C181.07 168.02 167.02 182.07 149.69 182.07H149.7Z" fill="#3BC4E5"/>
<path d="M181.08 107.35V138.73H149.7C143.09 138.73 137.72 144.09 137.72 150.7V182.08H106.35V119.33C106.35 112.72 111.71 107.35 118.32 107.35H181.07H181.08Z" fill="#00B4D0"/>
</svg>
